# xmcd
#
# Track frame offsets:
#	150
#	13734
#	23927
#	81301
#	128940
#	159540
#	203188
#
# Disc length: 2934 seconds
#
# Revision: 1
# Processed by: cddbd v1.5.2PL0 Copyright (c) Steve Scherf et al.
# Submitted via: audiograbber 1.83.01
#
DISCID=580b7407
DTITLE=Grateful Dead - 71-06-21 Chateau d'Herouville, Herouville, France
DYEAR=1900
DGENRE=
TTITLE0=Cryptical Envelopment
TTITLE1=Drums
TTITLE2=The Other One
TTITLE3=Wharf Rat
TTITLE4=Sugar Magnolia
TTITLE5=Sing Me Back Home
TTITLE6=Johnny B Goode
EXTD=
EXTT0=
EXTT1=
EXTT2=
EXTT3=
EXTT4=
EXTT5=
EXTT6=
PLAYORDER=
